<svg aria-hidden="true" style="position: absolute; width: 0; height: 0; overflow: hidden;" version="1.1" xmlns="http://www.w3.org/2000/svg" xmlns:xlink="http://www.w3.org/1999/xlink">
<defs>
<symbol id="icon-background_burger" viewBox="0 0 32 32">
<path d="M15.283 4.518l6.128-1.642c0.369-0.099 0.748 0.12 0.847 0.489l2.631 9.819c0.099 0.369-0.12 0.748-0.489 0.847l-6.128 1.642c-0.369 0.099-0.748-0.12-0.847-0.489l-2.631-9.819c-0.099-0.369 0.12-0.748 0.489-0.847z"></path>
<path d="M28.526 14.644l6.195-1.66c0.369-0.099 0.748 0.12 0.847 0.489l2.631 9.819c0.099 0.369-0.12 0.748-0.489 0.847l-6.195 1.66c-0.369 0.099-0.748-0.12-0.847-0.489l-2.631-9.819c-0.099-0.369 0.12-0.748 0.489-0.847z"></path>
<path d="M-4.953 9.94l6.111-1.637c0.369-0.099 0.748 0.12 0.847 0.489l2.631 9.819c0.099 0.369-0.12 0.748-0.489 0.847l-6.111 1.637c-0.369 0.099-0.748-0.12-0.847-0.489l-2.631-9.819c-0.099-0.369 0.12-0.748 0.489-0.847z"></path>
<path d="M5.328 7.185l5.656-1.516c0.369-0.099 0.748 0.12 0.847 0.489l2.631 9.819c0.099 0.369-0.12 0.748-0.489 0.847l-5.656 1.515c-0.369 0.099-0.748-0.12-0.847-0.489l-2.631-9.819c-0.099-0.369 0.12-0.748 0.489-0.847z"></path>
<path d="M25.175 1.867l5.989-1.605c0.369-0.099 0.748 0.12 0.847 0.489l2.631 9.819c0.099 0.369-0.12 0.748-0.489 0.847l-5.989 1.605c-0.369 0.099-0.748-0.12-0.847-0.489l-2.631-9.819c-0.099-0.369 0.12-0.748 0.489-0.847z"></path>
<path d="M8.544 19.998l6.178-1.655c0.369-0.099 0.748 0.12 0.847 0.489l2.631 9.819c0.099 0.369-0.12 0.748-0.489 0.847l-6.178 1.655c-0.369 0.099-0.748-0.12-0.847-0.489l-2.631-9.819c-0.099-0.369 0.12-0.748 0.489-0.847z"></path>
<path d="M-1.399 22.663l5.855-1.569c0.369-0.099 0.748 0.12 0.847 0.489l2.631 9.819c0.099 0.369-0.12 0.748-0.489 0.847l-5.855 1.569c-0.369 0.099-0.749-0.12-0.847-0.489l-2.631-9.819c-0.099-0.369 0.12-0.748 0.489-0.847z"></path>
<path d="M18.769 17.259l5.996-1.607c0.369-0.099 0.748 0.12 0.847 0.489l2.631 9.819c0.099 0.369-0.12 0.748-0.489 0.847l-5.996 1.607c-0.369 0.099-0.748-0.12-0.847-0.489l-2.631-9.819c-0.099-0.369 0.12-0.748 0.489-0.847z"></path>
<path d="M11.558 32.866l6.863-1.839c0.369-0.099 0.748 0.12 0.847 0.489l2.631 9.819c0.099 0.369-0.12 0.748-0.489 0.847l-6.863 1.839c-0.369 0.099-0.748-0.12-0.847-0.489l-2.631-9.819c-0.099-0.369 0.12-0.748 0.489-0.847z"></path>
<path d="M21.918 30.090l6.531-1.75c0.369-0.099 0.748 0.12 0.847 0.489l2.631 9.819c0.099 0.369-0.12 0.748-0.489 0.847l-6.531 1.75c-0.369 0.099-0.748-0.12-0.847-0.489l-2.631-9.819c-0.099-0.369 0.12-0.748 0.489-0.847z"></path>
<path d="M32.148 27.349l5.683-1.523c0.369-0.099 0.748 0.12 0.847 0.489l2.631 9.819c0.099 0.369-0.12 0.748-0.489 0.847l-5.683 1.523c-0.369 0.099-0.748-0.12-0.847-0.489l-2.631-9.819c-0.099-0.369 0.12-0.748 0.489-0.847z"></path>
</symbol>
<symbol id="icon-icon-arrow-narrow-right" viewBox="0 0 32 32">
<path fill="none" stroke="#eac645" style="stroke: var(--color1, #eac645)" stroke-linejoin="round" stroke-linecap="round" stroke-miterlimit="4" stroke-width="3.2" d="M5.333 16h21.333M26.667 16l-8-8M26.667 16l-8 8"></path>
</symbol>
<symbol id="icon-icon-back-to-top" viewBox="0 0 32 32">
<path fill="#fff" style="fill: var(--color2, #fff)" d="M4.5 19.6l11.2-11.233c0.133-0.133 0.278-0.228 0.433-0.283s0.322-0.084 0.5-0.084c0.178 0 0.345 0.028 0.5 0.084s0.3 0.149 0.433 0.283l11.233 11.233c0.311 0.311 0.467 0.7 0.467 1.167s-0.167 0.867-0.5 1.2c-0.333 0.333-0.722 0.5-1.167 0.5s-0.833-0.167-1.167-0.5l-9.8-9.8-9.8 9.8c-0.311 0.311-0.694 0.467-1.149 0.467s-0.851-0.167-1.184-0.5-0.5-0.722-0.5-1.167c0-0.444 0.167-0.833 0.5-1.167z"></path>
</symbol>
<symbol id="icon-bookshelf" viewBox="0 0 32 32">
<path d="M4.032 14.642c0-0.86-0.636-1.347-1.735-1.347h-2.297v5.349h2.424c1.107 0 1.818-0.531 1.818-1.563 0-0.8-0.479-1.212-1.040-1.309v-0.015c0.441-0.15 0.83-0.456 0.83-1.115zM0.89 15.51v-1.459h1.429c0.531 0 0.823 0.262 0.823 0.733s-0.239 0.726-0.875 0.726h-1.376zM0.89 16.176h1.563c0.561 0 0.898 0.307 0.898 0.853 0 0.501-0.232 0.86-0.995 0.86h-1.466v-1.713z"></path>
<path d="M6.525 18.757c-1.197 0-1.923-0.83-1.923-2.020s0.726-2.020 1.923-2.020c1.197 0 1.923 0.83 1.923 2.020s-0.726 2.020-1.923 2.020zM6.525 18.113c0.748 0 1.137-0.591 1.137-1.376 0-0.793-0.389-1.376-1.137-1.376s-1.137 0.583-1.137 1.376c0 0.785 0.389 1.376 1.137 1.376z"></path>
<path d="M10.711 18.757c-1.197 0-1.922-0.83-1.922-2.020s0.726-2.020 1.922-2.020c1.197 0 1.922 0.83 1.922 2.020s-0.726 2.020-1.922 2.020zM10.711 18.113c0.748 0 1.137-0.591 1.137-1.376 0-0.793-0.389-1.376-1.137-1.376s-1.137 0.583-1.137 1.376c0 0.785 0.389 1.376 1.137 1.376z"></path>
<path d="M13.177 13.296v5.349h0.785v-1.384l0.531-0.501 1.204 1.885h0.943l-1.608-2.401 1.451-1.421h-0.965l-1.556 1.534v-3.060h-0.785z"></path>
<path d="M18.534 16.333c-0.554-0.127-0.98-0.157-0.98-0.546 0-0.269 0.254-0.449 0.726-0.449 0.613 0 0.763 0.307 0.815 0.606h0.763c-0.052-0.666-0.546-1.227-1.586-1.227-0.957 0-1.511 0.501-1.511 1.13 0 0.868 0.823 0.987 1.429 1.13 0.561 0.135 1.017 0.172 1.017 0.651 0 0.239-0.232 0.509-0.778 0.509-0.808 0-0.987-0.352-1.025-0.763h-0.763c0.037 0.808 0.569 1.384 1.803 1.384 0.928 0 1.556-0.456 1.556-1.189 0-0.913-0.763-1.070-1.466-1.234z"></path>
<path d="M22.568 14.717c-0.643 0-1.040 0.299-1.242 0.598h-0.015v-2.020h-0.785v5.349h0.785v-2.326c0-0.569 0.411-0.935 0.987-0.935 0.546 0 0.763 0.329 0.763 0.845v2.416h0.793v-2.641c0-0.875-0.561-1.287-1.287-1.287z"></path>
<path d="M26.263 18.113c-0.696 0-1.107-0.531-1.107-1.174h2.932c0-1.361-0.606-2.222-1.84-2.222-1.152 0-1.878 0.778-1.878 2.020 0 1.197 0.726 2.020 1.915 2.020 0.98 0 1.548-0.554 1.743-1.279h-0.785c-0.067 0.232-0.329 0.636-0.98 0.636zM26.248 15.338c0.636 0 1.055 0.426 1.055 1.017h-2.147c0-0.591 0.456-1.017 1.092-1.017z"></path>
<path d="M28.642 13.296v5.349h0.793v-5.349h-0.793z"></path>
<path d="M32.001 13.939v-0.643c-0.157-0.030-0.329-0.052-0.524-0.052-0.628 0-0.972 0.284-0.972 1.092v0.486h-0.546v0.643h0.546v3.179h0.793v-3.179h0.703v-0.643h-0.703v-0.419c0-0.434 0.195-0.486 0.703-0.464z"></path>
</symbol>
<symbol id="icon-icon-burger" viewBox="0 0 32 32">
<path stroke-linejoin="round" stroke-linecap="round" stroke-miterlimit="4" stroke-width="2.2857" d="M22.667 13.333h-18.667"></path>
<path stroke-linejoin="round" stroke-linecap="round" stroke-miterlimit="4" stroke-width="2.2857" d="M28 8h-24"></path>
<path stroke-linejoin="round" stroke-linecap="round" stroke-miterlimit="4" stroke-width="2.2857" d="M28 18.667h-24"></path>
<path stroke-linejoin="round" stroke-linecap="round" stroke-miterlimit="4" stroke-width="2.2857" d="M22.667 24h-18.667"></path>
</symbol>
<symbol id="icon-icon-close" viewBox="0 0 32 32">
<path fill="none" stroke="#4f2ee8" style="stroke: var(--color3, #4f2ee8)" stroke-linejoin="round" stroke-linecap="round" stroke-miterlimit="4" stroke-width="3.4286" d="M24 8l-16 16M8 8l16 16"></path>
</symbol>
<symbol id="icon-gerb" viewBox="0 0 32 32">
<path fill="#fff" style="fill: var(--color2, #fff)" d="M15.005 30.888c-1.738-1.262-2.991-3.156-3.414-5.351h-5.591v-23.117c2.991 1.443 5.153 4.599 5.388 7.876l0.846 6.493-0.407-0.045c-0.893 0-1.676 0.812-1.676 1.608 0 0.752 0.595 1.383 1.378 1.548l1.018 0.226c1.676-3.051 2.631-6.042 2.631-8.973 0-2.645-0.36-5.291-0.423-7.996 0-1.202 0.486-2.3 1.253-3.156 0.783 0.857 1.253 1.954 1.253 3.156 0 2.705-0.423 5.351-0.423 7.996 0 2.931 0.955 5.922 2.631 8.973l1.018-0.226c0.783-0.165 1.378-0.812 1.378-1.548 0-0.812-0.783-1.608-1.676-1.608l-0.423 0.060 0.846-6.493c0.423-3.277 2.396-6.448 5.388-7.876v23.117h-5.576c-0.423 2.179-1.613 4.148-3.414 5.351-0.423 0.286-0.783 0.631-1.018 1.097-0.219-0.466-0.579-0.812-0.987-1.112zM8.647 17.556c0.235-0.857 0.893-1.608 1.738-2.074l-0.658-5.351c-0.235-1.668-0.955-3.156-2.036-4.374v11.784h0.955v0.015zM11.466 23.929c0-0.812 0.125-1.548 0.298-2.3l-0.783-0.18c-1.143-0.346-2.036-1.203-2.334-2.3h-0.955v4.78h3.774zM15.178 23.929c0-0.977-0.783-1.834-1.801-1.954-0.172 0.631-0.298 1.263-0.298 1.954h2.099zM15.178 25.552h-1.864c0.298 1.263 0.955 2.42 1.864 3.397v-3.397zM17.809 20.547c-0.72-1.262-1.378-2.585-1.801-3.968-0.423 1.383-1.081 2.706-1.801 3.968 0.72 0.165 1.316 0.631 1.801 1.157 0.485-0.526 1.081-0.992 1.801-1.157zM18.952 23.929c0-0.691-0.125-1.323-0.297-1.954-1.018 0.12-1.801 0.977-1.801 1.954h2.099zM18.717 25.552h-1.864v3.397c0.908-0.992 1.566-2.134 1.864-3.397zM24.34 23.929v-4.78h-0.955c-0.298 1.097-1.206 1.954-2.334 2.3l-0.783 0.18c0.172 0.752 0.298 1.488 0.298 2.3h3.774zM24.34 17.556v-11.799c-1.081 1.202-1.864 2.706-2.036 4.374l-0.658 5.351c0.846 0.466 1.504 1.203 1.738 2.074h0.955z"></path>
</symbol>
<symbol id="icon-lock" viewBox="0 0 32 32">
<path stroke-linejoin="round" stroke-linecap="round" stroke-miterlimit="4" stroke-width="2.2857" d="M22.667 14.667v-4c0-3.682-2.985-6.667-6.667-6.667s-6.667 2.985-6.667 6.667v4M10.4 28h11.2c2.24 0 3.36 0 4.216-0.436 0.753-0.383 1.365-0.995 1.748-1.748 0.436-0.856 0.436-1.976 0.436-4.216v-0.533c0-2.24 0-3.36-0.436-4.216-0.383-0.753-0.995-1.365-1.748-1.748-0.856-0.436-1.976-0.436-4.216-0.436h-11.2c-2.24 0-3.36 0-4.216 0.436-0.753 0.384-1.365 0.995-1.748 1.748-0.436 0.856-0.436 1.976-0.436 4.216v0.533c0 2.24 0 3.36 0.436 4.216 0.383 0.753 0.995 1.365 1.748 1.748 0.856 0.436 1.976 0.436 4.216 0.436z"></path>
</symbol>
<symbol id="icon-ogo" viewBox="0 0 32 32">
<path fill="#f6f6f6" style="fill: var(--color4, #f6f6f6)" d="M0 0l16.343 16.171 15.657 15.829v-32h-32z"></path>
<path fill="#f6f6f6" style="fill: var(--color4, #f6f6f6)" d="M4.457 4.229l11.943 11.829 11.257 11.486h-23.2v-23.314z"></path>
<path fill="#4f2ee8" style="fill: var(--color3, #4f2ee8)" d="M27.733 27.618l-11.943-11.829-11.257-11.486h23.2v23.314z"></path>
<path fill="#4f2ee8" style="fill: var(--color3, #4f2ee8)" d="M9.257 9.029l13.6 13.6h-13.6v-13.6z"></path>
<path fill="#f6f6f6" style="fill: var(--color4, #f6f6f6)" d="M9.257 9.029l13.6 13.6v-13.6h-13.6z"></path>
</symbol>
<symbol id="icon-mail" viewBox="0 0 32 32">
<path stroke-linejoin="round" stroke-linecap="round" stroke-miterlimit="4" stroke-width="2.2857" d="M28.666 24l-8.857-8M12.19 16l-8.857 8M2.667 9.333l10.887 7.621c0.882 0.617 1.322 0.926 1.802 1.045 0.423 0.106 0.866 0.106 1.29 0 0.479-0.12 0.92-0.428 1.802-1.045l10.887-7.621M9.067 26.667h13.867c2.24 0 3.36 0 4.216-0.436 0.753-0.384 1.365-0.995 1.748-1.748 0.436-0.856 0.436-1.976 0.436-4.216v-8.533c0-2.24 0-3.36-0.436-4.216-0.383-0.753-0.995-1.365-1.748-1.748-0.856-0.436-1.976-0.436-4.216-0.436h-13.867c-2.24 0-3.36 0-4.216 0.436-0.753 0.383-1.365 0.995-1.748 1.748-0.436 0.856-0.436 1.976-0.436 4.216v8.533c0 2.24 0 3.36 0.436 4.216 0.384 0.753 0.995 1.365 1.748 1.748 0.856 0.436 1.976 0.436 4.216 0.436z"></path>
</symbol>
<symbol id="icon-pagination-left" viewBox="0 0 32 32">
<path fill="#b4afaf" style="fill: var(--color5, #b4afaf)" d="M14.133 16.947c-0.125-0.124-0.224-0.271-0.292-0.434s-0.103-0.337-0.103-0.513 0.035-0.35 0.103-0.513c0.068-0.163 0.167-0.31 0.292-0.434l6.12-6.107c0.125-0.124 0.224-0.271 0.292-0.434s0.103-0.337 0.103-0.513-0.035-0.35-0.103-0.513c-0.068-0.162-0.167-0.31-0.292-0.434-0.25-0.248-0.588-0.388-0.94-0.388s-0.69 0.139-0.94 0.388l-6.12 6.12c-0.749 0.75-1.17 1.767-1.17 2.827s0.421 2.077 1.17 2.827l6.12 6.12c0.248 0.246 0.583 0.385 0.933 0.387 0.175 0.001 0.349-0.033 0.512-0.099s0.31-0.164 0.435-0.288c0.125-0.124 0.224-0.271 0.292-0.434s0.103-0.337 0.103-0.513c0-0.176-0.035-0.35-0.103-0.513s-0.167-0.31-0.292-0.434l-6.12-6.107z"></path>
</symbol>
<symbol id="icon-agination-right" viewBox="0 0 32 32">
<path d="M17.867 16.947c0.125-0.124 0.224-0.271 0.292-0.434s0.103-0.337 0.103-0.513c0-0.176-0.035-0.35-0.103-0.513s-0.167-0.31-0.292-0.434l-6.12-6.107c-0.125-0.124-0.224-0.271-0.292-0.434s-0.103-0.337-0.103-0.513c0-0.176 0.035-0.35 0.103-0.513s0.167-0.31 0.292-0.434c0.25-0.248 0.588-0.388 0.94-0.388s0.69 0.139 0.94 0.388l6.12 6.12c0.749 0.75 1.17 1.767 1.17 2.827s-0.421 2.077-1.17 2.827l-6.12 6.12c-0.248 0.246-0.584 0.385-0.933 0.387-0.175 0.001-0.349-0.033-0.512-0.099s-0.31-0.164-0.435-0.288c-0.125-0.124-0.224-0.271-0.292-0.434s-0.103-0.337-0.103-0.513c0-0.176 0.035-0.35 0.103-0.513s0.167-0.31 0.292-0.434l6.12-6.107z"></path>
</symbol>
<symbol id="icon-hop" viewBox="0 0 32 32">
<path d="M26.371 8.593h-4.444v-1.481c0-1.572-0.624-3.079-1.736-4.19s-2.619-1.736-4.19-1.736c-1.572 0-3.079 0.624-4.19 1.736s-1.736 2.619-1.736 4.19v1.481h-4.444c-0.393 0-0.77 0.156-1.048 0.434s-0.434 0.655-0.434 1.048v16.296c0 1.179 0.468 2.309 1.302 3.143s1.964 1.302 3.143 1.302h14.815c1.179 0 2.309-0.468 3.143-1.302s1.302-1.964 1.302-3.143v-16.296c0-0.393-0.156-0.77-0.434-1.048s-0.655-0.434-1.047-0.434zM13.037 7.111c0-0.786 0.312-1.539 0.868-2.095s1.309-0.868 2.095-0.868c0.786 0 1.539 0.312 2.095 0.868s0.868 1.309 0.868 2.095v1.481h-5.926v-1.481zM24.889 26.37c0 0.393-0.156 0.77-0.434 1.047s-0.655 0.434-1.048 0.434h-14.815c-0.393 0-0.77-0.156-1.048-0.434s-0.434-0.655-0.434-1.047v-14.815h2.963v1.481c0 0.393 0.156 0.77 0.434 1.048s0.655 0.434 1.048 0.434c0.393 0 0.77-0.156 1.048-0.434s0.434-0.655 0.434-1.048v-1.481h5.926v1.481c0 0.393 0.156 0.77 0.434 1.048s0.655 0.434 1.048 0.434c0.393 0 0.77-0.156 1.048-0.434s0.434-0.655 0.434-1.048v-1.481h2.963v14.815z"></path>
</symbol>
<symbol id="icon-uport-down" viewBox="0 0 32 32">
<path fill="#4f2ee8" style="fill: var(--color3, #4f2ee8)" d="M15.053 17.867c0.124 0.125 0.271 0.224 0.434 0.292s0.337 0.103 0.513 0.103c0.176 0 0.35-0.035 0.513-0.103s0.31-0.167 0.434-0.292l6.107-6.12c0.124-0.125 0.271-0.224 0.434-0.292s0.337-0.103 0.513-0.103c0.176 0 0.35 0.035 0.513 0.103s0.31 0.167 0.434 0.292c0.248 0.25 0.388 0.588 0.388 0.94s-0.139 0.69-0.388 0.94l-6.12 6.12c-0.75 0.749-1.767 1.17-2.827 1.17s-2.077-0.421-2.827-1.17l-6.12-6.12c-0.246-0.248-0.385-0.584-0.387-0.933-0.001-0.175 0.033-0.349 0.099-0.512s0.164-0.31 0.288-0.435c0.124-0.125 0.271-0.224 0.434-0.292s0.337-0.103 0.513-0.103c0.176 0 0.35 0.035 0.513 0.103s0.31 0.167 0.434 0.292l6.107 6.12z"></path>
</symbol>
<symbol id="icon-suport-up" viewBox="0 0 32 32">
<path fill="#4f2ee8" style="fill: var(--color3, #4f2ee8)" d="M15.053 14.133c0.124-0.125 0.271-0.224 0.434-0.292s0.337-0.103 0.513-0.103c0.176 0 0.35 0.035 0.513 0.103s0.31 0.167 0.434 0.292l6.107 6.12c0.124 0.125 0.271 0.224 0.434 0.292s0.337 0.103 0.513 0.103 0.35-0.035 0.513-0.103c0.162-0.068 0.31-0.167 0.434-0.292 0.248-0.25 0.388-0.588 0.388-0.94s-0.139-0.69-0.388-0.94l-6.12-6.12c-0.75-0.749-1.767-1.17-2.827-1.17s-2.077 0.421-2.827 1.17l-6.12 6.12c-0.246 0.248-0.385 0.584-0.387 0.933-0.001 0.175 0.033 0.349 0.099 0.512s0.164 0.31 0.288 0.435c0.124 0.125 0.271 0.224 0.434 0.292s0.337 0.103 0.513 0.103 0.35-0.035 0.513-0.103c0.162-0.068 0.31-0.167 0.434-0.292l6.107-6.12z"></path>
</symbol>
<symbol id="icon-ser" viewBox="0 0 32 32">
<path fill="#4f2ee8" style="fill: var(--color3, #4f2ee8)" d="M5.333 29.333c0-2.829 1.124-5.542 3.124-7.543s4.713-3.124 7.542-3.124c2.829 0 5.542 1.124 7.542 3.124s3.124 4.714 3.124 7.543h-21.333zM16 17.333c-4.42 0-8-3.58-8-8s3.58-8 8-8c4.42 0 8 3.58 8 8s-3.58 8-8 8z"></path>
</symbol>
<symbol id="icon-ser-caret-down" viewBox="0 0 32 32">
<path fill="#fff" style="fill: var(--color2, #fff)" d="M7.744 12h16.513l-7.423 8.391c-0.221 0.25-0.521 0.39-0.834 0.39s-0.613-0.14-0.834-0.39l-7.422-8.391z"></path>
</symbol>
<symbol id="icon-trash" viewBox="0 0 32 32">
<path fill="none" stroke="#fff" style="stroke: var(--color2, #fff)" stroke-linejoin="round" stroke-linecap="round" stroke-miterlimit="4" stroke-width="2.6667" d="M12 4h8M4 8h24M25.333 8l-0.935 14.026c-0.14 2.104-0.21 3.156-0.665 3.954-0.4 0.702-1.004 1.267-1.731 1.62-0.826 0.4-1.881 0.4-3.99 0.4h-4.025c-2.109 0-3.163 0-3.99-0.4-0.727-0.353-1.331-0.917-1.731-1.62-0.455-0.798-0.525-1.85-0.665-3.954l-0.935-14.026M13.333 14v6.667M18.667 14v6.667"></path>
</symbol>
</defs>
</svg>
